<svg width="16" height="16" viewBox="0 0 16 16" fill="none" xmlns="http://www.w3.org/2000/svg">
<path d="M1.09103 13.4543H3.63653V15.6364C3.63653 15.7426 3.6705 15.8295 3.73884 15.8974C3.807 15.9658 3.89413 16 4.00027 16H5.8979C5.99638 16 6.0816 15.9658 6.15358 15.8974C6.22557 15.8295 6.26145 15.7426 6.26145 15.6364V13.4543H12.0001C12.106 13.4543 12.1931 13.4206 12.2615 13.3522C12.3298 13.2839 12.3638 13.1969 12.3638 13.0907V11.6361C12.3638 11.5306 12.3298 11.443 12.2615 11.3751C12.1933 11.3067 12.106 11.2726 12.0001 11.2726H6.26126V9.93158H10.1249C11.64 9.93158 12.8765 9.46992 13.8351 8.54529C14.7933 7.62163 15.2727 6.42849 15.2727 4.96579C15.2727 3.50407 14.7933 2.31089 13.8351 1.38629C12.8767 0.462599 11.6399 0 10.1249 0H4.00008C3.89391 0 3.80697 0.0341562 3.73866 0.102124C3.6705 0.170467 3.63634 0.257975 3.63634 0.363549V7.51145H1.09103C0.984894 7.51145 0.897919 7.54736 0.829607 7.61931C0.761483 7.69129 0.727295 7.77651 0.727295 7.87496V9.56797C0.727295 9.67414 0.761263 9.76111 0.829607 9.82943C0.897951 9.8978 0.984705 9.93155 1.09103 9.93155H3.63653V11.2725H1.09103C0.984894 11.2725 0.897919 11.3067 0.829607 11.3751C0.761483 11.443 0.727295 11.5304 0.727295 11.6361V13.0907C0.727295 13.1969 0.761263 13.2838 0.829607 13.3522C0.897919 13.4206 0.984862 13.4543 1.09103 13.4543ZM6.26126 2.4207H9.89762C10.7006 2.4207 11.3482 2.65546 11.8408 3.12515C12.3331 3.59487 12.5794 4.20871 12.5794 4.96598C12.5794 5.72363 12.3331 6.33765 11.8408 6.80681C11.3482 7.2769 10.7005 7.51167 9.89762 7.51167H6.26126V2.4207Z" fill="#2F3D4A"/>
</svg>
