<svg width="21" height="19" viewBox="0 0 21 19" fill="none" xmlns="http://www.w3.org/2000/svg">
<path d="M15.2895 12.0772H14.4657L14.1877 11.7992C15.1969 10.6253 15.8044 9.11156 15.8044 7.44336C15.8044 3.74657 12.8078 0.75 9.11104 0.75C5.41424 0.75 2.41768 3.83924 2.41768 7.44336H-0.166992L3.78724 11.5624L8.071 7.44336H4.47717C4.47717 4.86899 6.55727 2.8095 9.11104 2.8095C11.6648 2.8095 13.7449 4.87929 13.7449 7.44336C13.7449 9.99714 11.6648 12.0772 9.11104 12.0772C8.4417 12.0772 7.81356 11.9331 7.2369 11.6859L5.71287 13.21C6.71173 13.7969 7.86505 14.1367 9.11104 14.1367C10.7689 14.1367 12.2827 13.5292 13.4566 12.52L13.7346 12.7981V13.6116L18.8937 18.75L20.428 17.226L15.2895 12.0772Z" fill="#8F00FF"/>
</svg>
