<svg width="191" height="45" viewBox="0 0 191 45" fill="none" xmlns="http://www.w3.org/2000/svg">
<path d="M8.616 15.44V32H5.616V15.44H8.616ZM13.752 15.44V17.888H0.48V15.44H13.752ZM19.3386 15.392C20.1706 15.392 21.0186 15.392 21.8826 15.392C22.7626 15.392 23.6266 15.408 24.4746 15.44C25.3226 15.472 26.1226 15.52 26.8746 15.584L26.7306 17.816H20.2506C19.8026 17.816 19.4666 17.928 19.2426 18.152C19.0346 18.376 18.9306 18.728 18.9306 19.208V28.232C18.9306 28.712 19.0346 29.064 19.2426 29.288C19.4666 29.512 19.8026 29.624 20.2506 29.624H26.7306L26.8746 31.856C26.1226 31.92 25.3226 31.968 24.4746 32C23.6266 32.016 22.7626 32.024 21.8826 32.024C21.0186 32.04 20.1706 32.048 19.3386 32.048C18.3146 32.048 17.4906 31.768 16.8666 31.208C16.2586 30.632 15.9466 29.864 15.9306 28.904V18.536C15.9466 17.576 16.2586 16.816 16.8666 16.256C17.4906 15.68 18.3146 15.392 19.3386 15.392ZM16.3626 22.232H25.8186V24.44H16.3626V22.232ZM43.2261 15.44V30.872C43.2261 31.624 42.8581 32 42.1221 32H40.0821C39.7461 32 39.4901 31.928 39.3141 31.784C39.1381 31.624 38.9781 31.392 38.8341 31.088L33.8181 21.104C33.6421 20.752 33.4581 20.368 33.2661 19.952C33.0901 19.52 32.9461 19.112 32.8341 18.728H32.5221C32.5541 19.128 32.5781 19.536 32.5941 19.952C32.6261 20.352 32.6421 20.752 32.6421 21.152V32H29.7621V16.568C29.7621 15.816 30.1301 15.44 30.8661 15.44H32.8581C33.1941 15.44 33.4501 15.52 33.6261 15.68C33.8021 15.824 33.9621 16.048 34.1061 16.352L38.9781 26.072C39.1701 26.424 39.3621 26.824 39.5541 27.272C39.7621 27.704 39.9541 28.144 40.1301 28.592H40.4901C40.4581 28.128 40.4261 27.68 40.3941 27.248C40.3781 26.8 40.3701 26.36 40.3701 25.928V15.44H43.2261ZM53.1583 15.224C54.4063 15.224 55.4623 15.368 56.3263 15.656C57.2063 15.928 57.9103 16.392 58.4383 17.048C58.9823 17.688 59.3743 18.56 59.6143 19.664C59.8543 20.752 59.9743 22.104 59.9743 23.72C59.9743 25.336 59.8543 26.696 59.6143 27.8C59.3743 28.888 58.9823 29.76 58.4383 30.416C57.9103 31.056 57.2063 31.52 56.3263 31.808C55.4623 32.08 54.4063 32.216 53.1583 32.216C51.9583 32.216 50.8463 32.192 49.8223 32.144C48.7983 32.112 47.8303 32.064 46.9183 32L48.1663 29.696C48.8063 29.728 49.5423 29.76 50.3743 29.792C51.2063 29.808 52.1343 29.816 53.1583 29.816C54.0863 29.816 54.8143 29.64 55.3423 29.288C55.8863 28.92 56.2703 28.296 56.4943 27.416C56.7183 26.52 56.8303 25.288 56.8303 23.72C56.8303 22.152 56.7183 20.928 56.4943 20.048C56.2703 19.152 55.8863 18.52 55.3423 18.152C54.8143 17.784 54.0863 17.6 53.1583 17.6C52.1663 17.6 51.2783 17.608 50.4943 17.624C49.7263 17.64 48.9743 17.648 48.2383 17.648L46.9183 15.44C47.8303 15.376 48.7903 15.328 49.7983 15.296C50.8223 15.248 51.9423 15.224 53.1583 15.224ZM49.9183 15.44V32H46.9183V15.44H49.9183ZM66.3776 15.392C67.2096 15.392 68.0576 15.392 68.9216 15.392C69.8016 15.392 70.6656 15.408 71.5136 15.44C72.3616 15.472 73.1616 15.52 73.9136 15.584L73.7696 17.816H67.2896C66.8416 17.816 66.5056 17.928 66.2816 18.152C66.0736 18.376 65.9696 18.728 65.9696 19.208V28.232C65.9696 28.712 66.0736 29.064 66.2816 29.288C66.5056 29.512 66.8416 29.624 67.2896 29.624H73.7696L73.9136 31.856C73.1616 31.92 72.3616 31.968 71.5136 32C70.6656 32.016 69.8016 32.024 68.9216 32.024C68.0576 32.04 67.2096 32.048 66.3776 32.048C65.3536 32.048 64.5296 31.768 63.9056 31.208C63.2976 30.632 62.9856 29.864 62.9696 28.904V18.536C62.9856 17.576 63.2976 16.816 63.9056 16.256C64.5296 15.68 65.3536 15.392 66.3776 15.392ZM63.4016 22.232H72.8576V24.44H63.4016V22.232ZM82.8971 15.224C84.2731 15.224 85.3851 15.368 86.2331 15.656C87.0971 15.944 87.7211 16.44 88.1051 17.144C88.5051 17.832 88.7051 18.808 88.7051 20.072C88.7051 20.904 88.6011 21.616 88.3931 22.208C88.2011 22.784 87.8731 23.248 87.4091 23.6C86.9611 23.936 86.3531 24.152 85.5851 24.248V24.368C85.8571 24.432 86.1371 24.56 86.4251 24.752C86.7291 24.928 87.0011 25.184 87.2411 25.52C87.4971 25.856 87.6891 26.288 87.8171 26.816L89.3291 32H86.1611L84.7931 26.888C84.6171 26.312 84.3771 25.912 84.0731 25.688C83.7691 25.448 83.3531 25.328 82.8251 25.328C81.7851 25.328 80.8971 25.328 80.1611 25.328C79.4251 25.312 78.8091 25.296 78.3131 25.28C77.8331 25.264 77.4091 25.256 77.0411 25.256L77.1131 22.976H82.8251C83.5451 22.96 84.1131 22.88 84.5291 22.736C84.9451 22.576 85.2411 22.304 85.4171 21.92C85.5931 21.52 85.6811 20.96 85.6811 20.24C85.6811 19.536 85.5931 18.992 85.4171 18.608C85.2411 18.224 84.9451 17.96 84.5291 17.816C84.1131 17.656 83.5451 17.576 82.8251 17.576C81.4171 17.576 80.2091 17.584 79.2011 17.6C78.1931 17.616 77.5051 17.632 77.1371 17.648L76.8011 15.44C77.4411 15.376 78.0411 15.328 78.6011 15.296C79.1771 15.264 79.8011 15.248 80.4731 15.248C81.1451 15.232 81.9531 15.224 82.8971 15.224ZM79.7531 15.44V32H76.8011V15.44H79.7531Z" fill="black"/>
</svg>
