<svg width="16" height="16" viewBox="0 0 16 16" fill="none" xmlns="http://www.w3.org/2000/svg">
<path opacity="0.5" d="M11.5555 3.55556C11.5555 4.25878 11.347 4.94621 10.9563 5.53092C10.5656 6.11562 10.0103 6.57135 9.36064 6.84046C8.71095 7.10957 7.99606 7.17998 7.30635 7.04279C6.61665 6.9056 5.98311 6.56697 5.48586 6.06971C4.98861 5.57246 4.64998 4.93892 4.51279 4.24921C4.3756 3.5595 4.44601 2.8446 4.71512 2.1949C4.98423 1.54521 5.43995 0.989909 6.02465 0.599219C6.60936 0.20853 7.29678 0 8 0C8.94298 0 9.84735 0.374602 10.5141 1.0414C11.1809 1.70819 11.5555 2.61256 11.5555 3.55556ZM0.0093541 14.891C-0.009886 15.0289 0.00063114 15.1692 0.0401974 15.3027C0.0797636 15.4361 0.147461 15.5595 0.23873 15.6646C0.33 15.7697 0.442723 15.854 0.569311 15.9118C0.6959 15.9697 0.833414 15.9998 0.972595 16H15.0274C15.1666 15.9998 15.3041 15.9697 15.4307 15.9118C15.5573 15.854 15.67 15.7697 15.7613 15.6646C15.8525 15.5595 15.9202 15.4361 15.9598 15.3027C15.9994 15.1692 16.0099 15.0289 15.9906 14.891C15.7227 12.9622 14.7661 11.1955 13.2975 9.91676C11.8289 8.63805 9.94729 7.9337 8 7.9337C6.05271 7.9337 4.17113 8.63805 2.7025 9.91676C1.23387 11.1955 0.277313 12.9622 0.0093541 14.891Z" fill="#005BE9"/>
</svg>
